<svg xmlns="http://www.w3.org/2000/svg" viewBox="0 0 800 500" width="800" height="500" preserveAspectRatio="xMidYMid slice"><rect width="800" height="500" fill="#F6EEE5"/><ellipse cx="400" cy="330" rx="300" ry="90" fill="#B08257"/><g transform="translate(74.06284760360455 281.2278641951723) scale(0.95)"><path d="M-30 80 Q-30 20 0 20 Q30 20 30 80Z" fill="#A8384A"/><circle cx="0" cy="0" r="17" fill="#DFC4A6"/></g><g transform="translate(133.02439185626736 229.46576972490323) scale(0.95)"><path d="M-30 80 Q-30 20 0 20 Q30 20 30 80Z" fill="#A9A4A1"/><circle cx="0" cy="0" r="17" fill="#DFC4A6"/></g><g transform="translate(250.18313508594954 193.07921709739588) scale(0.95)"><path d="M-30 80 Q-30 20 0 20 Q30 20 30 80Z" fill="#8E2C3C"/><circle cx="0" cy="0" r="17" fill="#DFC4A6"/></g><g transform="translate(400.0 180.0) scale(0.95)"><path d="M-30 80 Q-30 20 0 20 Q30 20 30 80Z" fill="#B08257"/><circle cx="0" cy="0" r="17" fill="#DFC4A6"/></g><g transform="translate(549.8168649140504 193.07921709739585) scale(0.95)"><path d="M-30 80 Q-30 20 0 20 Q30 20 30 80Z" fill="#D9939D"/><circle cx="0" cy="0" r="17" fill="#DFC4A6"/></g><g transform="translate(666.9756081437326 229.46576972490323) scale(0.95)"><path d="M-30 80 Q-30 20 0 20 Q30 20 30 80Z" fill="#4A3F3C"/><circle cx="0" cy="0" r="17" fill="#DFC4A6"/></g><g transform="translate(725.9371523963955 281.2278641951723) scale(0.95)"><path d="M-30 80 Q-30 20 0 20 Q30 20 30 80Z" fill="#A8384A"/><circle cx="0" cy="0" r="17" fill="#DFC4A6"/></g><rect x="270" y="310" width="46" height="30" rx="3" fill="#FFFFFF" opacity=".85"/><rect x="340" y="310" width="46" height="30" rx="3" fill="#FFFFFF" opacity=".85"/><rect x="410" y="310" width="46" height="30" rx="3" fill="#FFFFFF" opacity=".85"/><rect x="480" y="310" width="46" height="30" rx="3" fill="#FFFFFF" opacity=".85"/><rect x="300" y="30" width="200" height="100" rx="8" fill="#FFFFFF"/><text x="400" y="92" font-family="sans-serif" font-size="34" font-weight="700" fill="#A8384A" text-anchor="middle">OBE</text></svg>