<svg xmlns="http://www.w3.org/2000/svg" viewBox="0 0 800 520" width="800" height="520" preserveAspectRatio="xMidYMid slice"><rect width="800" height="520" fill="#F8F6F4"/><g transform="translate(260 180) scale(0.9)"><line x1="0" y1="0" x2="70" y2="-40" stroke="#A9A4A1" stroke-width="8"/><line x1="70" y1="-40" x2="140" y2="0" stroke="#A9A4A1" stroke-width="8"/><line x1="140" y1="0" x2="140" y2="80" stroke="#A9A4A1" stroke-width="8"/><line x1="140" y1="80" x2="70" y2="120" stroke="#A9A4A1" stroke-width="8"/><line x1="70" y1="120" x2="0" y2="80" stroke="#A9A4A1" stroke-width="8"/><line x1="0" y1="80" x2="0" y2="0" stroke="#A9A4A1" stroke-width="8"/><line x1="140" y1="0" x2="210" y2="-40" stroke="#A9A4A1" stroke-width="8"/><line x1="0" y1="0" x2="-70" y2="-40" stroke="#A9A4A1" stroke-width="8"/><line x1="140" y1="80" x2="210" y2="120" stroke="#A9A4A1" stroke-width="8"/><circle cx="0" cy="0" r="22" fill="#A8384A"/><circle cx="70" cy="-40" r="22" fill="#B08257"/><circle cx="140" cy="0" r="22" fill="#8E2C3C"/><circle cx="140" cy="80" r="22" fill="#DFC4A6"/><circle cx="70" cy="120" r="22" fill="#D9939D"/><circle cx="0" cy="80" r="22" fill="#B08257"/><circle cx="210" cy="-40" r="16" fill="#A8384A"/><circle cx="-70" cy="-40" r="16" fill="#DFC4A6"/><circle cx="210" cy="120" r="16" fill="#8E2C3C"/></g><ellipse cx="400" cy="430" rx="260" ry="30" fill="#E3DFDB"/><rect x="560" y="300" width="140" height="120" rx="60" fill="#4A3F3C"/><rect x="590" y="330" width="80" height="60" rx="30" fill="#A9A4A1"/></svg>